<?xml version="1.0" encoding="UTF-8" standalone="no"?>
<!-- Created with Inkscape (http://www.inkscape.org/) -->

<svg
   width="61.933506mm"
   height="10.12822mm"
   viewBox="0 0 61.933506 10.12822"
   version="1.1"
   id="svg5"
   inkscape:version="1.2.2 (b0a8486541, 2022-12-01)"
   sodipodi:docname="text_logo.svg"
   xmlns:inkscape="http://www.inkscape.org/namespaces/inkscape"
   xmlns:sodipodi="http://sodipodi.sourceforge.net/DTD/sodipodi-0.dtd"
   xmlns="http://www.w3.org/2000/svg"
   xmlns:svg="http://www.w3.org/2000/svg">
  <sodipodi:namedview
     id="namedview7"
     pagecolor="#ffffff"
     bordercolor="#666666"
     borderopacity="1.0"
     inkscape:showpageshadow="2"
     inkscape:pageopacity="0.0"
     inkscape:pagecheckerboard="0"
     inkscape:deskcolor="#d1d1d1"
     inkscape:document-units="px"
     showgrid="false"
     showborder="true"
     inkscape:zoom="1"
     inkscape:cx="254"
     inkscape:cy="118.5"
     inkscape:window-width="1920"
     inkscape:window-height="1049"
     inkscape:window-x="0"
     inkscape:window-y="31"
     inkscape:window-maximized="1"
     inkscape:current-layer="layer1" />
  <defs
     id="defs2" />
  <g
     inkscape:label="Layer 1"
     inkscape:groupmode="layer"
     id="layer1"
     transform="translate(-41.824945,-114.98588)">
    <g
       aria-label="piratax007"
       id="text236"
       style="font-size:10.5833px;line-height:1.25;font-family:'JetBrains Mono';-inkscape-font-specification:'JetBrains Mono, Normal';stroke-width:0.264583;fill:#808080;fill-opacity:1"
       inkscape:export-filename="text_logo.png"
       inkscape:export-xdpi="96"
       inkscape:export-ydpi="96">
      <path
         d="m 41.824945,125.1141 v -7.72581 h 0.952497 v 1.11125 h 0.01058 q 0.07408,-0.5715 0.497415,-0.889 0.433916,-0.32808 1.09008,-0.32808 0.878414,0 1.396996,0.58208 0.529165,0.5715 0.529165,1.57691 v 1.70391 q 0,1.00542 -0.529165,1.5875 -0.518582,0.58208 -1.396996,0.58208 -0.656164,0 -1.079496,-0.32808 -0.423332,-0.32809 -0.507999,-0.889 h -0.03175 l 0.02117,1.32291 v 1.69333 z m 2.233076,-2.62466 q 0.603248,0 0.941914,-0.35983 0.349249,-0.35983 0.349249,-1.03716 v -1.5875 q 0,-0.67733 -0.349249,-1.03716 -0.338666,-0.35983 -0.941914,-0.35983 -0.582081,0 -0.93133,0.37041 -0.349249,0.37042 -0.349249,1.02658 v 1.5875 q 0,0.65616 0.349249,1.02658 0.349249,0.37041 0.93133,0.37041 z"
         id="path368"
         style="fill:#808080;fill-opacity:1" />
      <path
         d="m 48.090262,123.20911 v -0.86783 h 2.063744 v -4.08516 h -1.852078 v -0.86783 h 2.804575 v 4.95299 h 1.95791 v 0.86783 z m 2.434159,-6.86857 q -0.349249,0 -0.550331,-0.17991 -0.201083,-0.17992 -0.201083,-0.48683 0,-0.3175 0.201083,-0.49742 0.201082,-0.1905 0.550331,-0.1905 0.349249,0 0.550332,0.1905 0.201083,0.17992 0.201083,0.49742 0,0.30691 -0.201083,0.48683 -0.201083,0.17991 -0.550332,0.17991 z"
         id="path370"
         style="fill:#808080;fill-opacity:1" />
      <path
         d="m 54.694245,123.20911 v -5.82082 h 0.952497 v 1.11125 h 0.01058 q 0.07408,-0.58208 0.476248,-0.89958 0.402165,-0.3175 1.068913,-0.3175 0.910164,0 1.449912,0.58208 0.539749,0.5715 0.539749,1.55575 v 0.40216 h -0.952497 v -0.3175 q 0,-0.66675 -0.338666,-1.02658 -0.338666,-0.37041 -0.984247,-0.37041 -1.269996,0 -1.269996,1.39699 v 3.70416 z"
         id="path372"
         style="fill:#808080;fill-opacity:1" />
      <path
         d="m 62.557641,123.31494 q -0.920747,0 -1.449912,-0.46567 -0.529165,-0.47624 -0.529165,-1.28057 0,-0.81492 0.529165,-1.28058 0.529165,-0.46567 1.428746,-0.46567 h 1.799161 v -0.58208 q 0,-0.52917 -0.328083,-0.8255 -0.317499,-0.29633 -0.888997,-0.29633 -0.507998,0 -0.857247,0.22225 -0.349249,0.22225 -0.433915,0.58208 h -0.952497 q 0.05292,-0.48683 0.349249,-0.85725 0.306915,-0.37041 0.793747,-0.5715 0.497415,-0.21166 1.100663,-0.21166 1.005414,0 1.587495,0.51858 0.582082,0.51858 0.582082,1.40758 v 4.00049 h -0.931331 v -1.11125 h -0.01058 q -0.0635,0.56091 -0.550332,0.889 -0.476248,0.32808 -1.238246,0.32808 z m 0.232833,-0.75141 q 0.677331,0 1.111246,-0.33867 0.433916,-0.33867 0.433916,-0.86783 v -0.8255 h -1.777995 q -0.476248,0 -0.751414,0.26458 -0.275166,0.26459 -0.275166,0.71967 0,0.48683 0.328083,0.77258 0.338665,0.27517 0.93133,0.27517 z"
         id="path374"
         style="fill:#808080;fill-opacity:1" />
      <path
         d="m 70.050621,123.20911 q -0.719664,0 -1.15358,-0.41275 -0.433915,-0.42333 -0.433915,-1.12183 v -3.41841 h -1.640412 v -0.86783 h 1.640412 v -1.64041 h 0.952497 v 1.64041 h 2.328326 v 0.86783 h -2.328326 v 3.41841 q 0,0.29633 0.169333,0.48683 0.179916,0.17992 0.465665,0.17992 h 1.587495 v 0.86783 z"
         id="path376"
         style="fill:#808080;fill-opacity:1" />
      <path
         d="m 75.257608,123.31494 q -0.920747,0 -1.449912,-0.46567 -0.529165,-0.47624 -0.529165,-1.28057 0,-0.81492 0.529165,-1.28058 0.529165,-0.46567 1.428745,-0.46567 h 1.799161 v -0.58208 q 0,-0.52917 -0.328082,-0.8255 -0.317499,-0.29633 -0.888997,-0.29633 -0.507999,0 -0.857248,0.22225 -0.349249,0.22225 -0.433915,0.58208 h -0.952497 q 0.05292,-0.48683 0.349249,-0.85725 0.306916,-0.37041 0.793747,-0.5715 0.497416,-0.21166 1.100664,-0.21166 1.005413,0 1.587495,0.51858 0.582081,0.51858 0.582081,1.40758 v 4.00049 h -0.93133 v -1.11125 h -0.01058 q -0.0635,0.56091 -0.550331,0.889 -0.476249,0.32808 -1.238246,0.32808 z m 0.232832,-0.75141 q 0.677332,0 1.111247,-0.33867 0.433915,-0.33867 0.433915,-0.86783 v -0.8255 h -1.777994 q -0.476249,0 -0.751415,0.26458 -0.275165,0.26459 -0.275165,0.71967 0,0.48683 0.328082,0.77258 0.338666,0.27517 0.93133,0.27517 z"
         id="path378"
         style="fill:#808080;fill-opacity:1" />
      <path
         d="m 79.469766,123.20911 2.063744,-2.99508 -1.936744,-2.82574 h 1.12183 l 1.153579,1.79916 q 0.07408,0.11642 0.137583,0.254 0.07408,0.13758 0.116417,0.22225 0.03175,-0.0847 0.09525,-0.22225 0.07408,-0.13758 0.148166,-0.254 l 1.164163,-1.79916 H 84.645 l -1.936744,2.83633 2.05316,2.98449 h -1.12183 l -1.248829,-1.905 q -0.07408,-0.11641 -0.148166,-0.26458 -0.0635,-0.15875 -0.116416,-0.254 -0.04233,0.0953 -0.127,0.254 -0.07408,0.14817 -0.15875,0.26458 l -1.259412,1.905 z"
         id="path380"
         style="fill:#808080;fill-opacity:1" />
      <path
         d="m 88.465574,123.31494 q -1.068913,0 -1.703911,-0.61383 -0.624414,-0.62442 -0.624414,-1.66158 v -3.38666 q 0,-1.03716 0.624414,-1.65099 0.634998,-0.62442 1.703911,-0.62442 1.068914,0 1.693328,0.62442 0.634998,0.61383 0.634998,1.65099 v 3.38666 q 0,0.68791 -0.285749,1.2065 -0.285749,0.50799 -0.814914,0.79374 -0.518581,0.27517 -1.227663,0.27517 z m 0,-0.81491 q 0.634998,0 1.015997,-0.40217 0.391582,-0.41275 0.391582,-1.05833 v -3.38666 q 0,-0.64558 -0.391582,-1.04774 -0.380999,-0.41275 -1.015997,-0.41275 -0.634998,0 -1.02658,0.41275 -0.380998,0.40216 -0.380998,1.04774 v 3.38666 q 0,0.64558 0.380998,1.05833 0.391582,0.40217 1.02658,0.40217 z m 0,-2.52941 q -0.285749,0 -0.465665,-0.17992 -0.169333,-0.17992 -0.169333,-0.47625 0,-0.28575 0.169333,-0.45508 0.179916,-0.17992 0.465665,-0.17992 0.28575,0 0.455082,0.17992 0.179916,0.16933 0.179916,0.45508 0,0.29633 -0.179916,0.47625 -0.169332,0.17992 -0.455082,0.17992 z"
         id="path382"
         style="fill:#808080;fill-opacity:1" />
      <path
         d="m 94.815558,123.31494 q -1.068914,0 -1.703912,-0.61383 -0.624414,-0.62442 -0.624414,-1.66158 v -3.38666 q 0,-1.03716 0.624414,-1.65099 0.634998,-0.62442 1.703912,-0.62442 1.068913,0 1.693328,0.62442 0.634998,0.61383 0.634998,1.65099 v 3.38666 q 0,0.68791 -0.285749,1.2065 -0.28575,0.50799 -0.814915,0.79374 -0.518581,0.27517 -1.227662,0.27517 z m 0,-0.81491 q 0.634998,0 1.015996,-0.40217 0.391583,-0.41275 0.391583,-1.05833 v -3.38666 q 0,-0.64558 -0.391583,-1.04774 -0.380998,-0.41275 -1.015996,-0.41275 -0.634998,0 -1.02658,0.41275 -0.380999,0.40216 -0.380999,1.04774 v 3.38666 q 0,0.64558 0.380999,1.05833 0.391582,0.40217 1.02658,0.40217 z m 0,-2.52941 q -0.285749,0 -0.465666,-0.17992 -0.169332,-0.17992 -0.169332,-0.47625 0,-0.28575 0.169332,-0.45508 0.179917,-0.17992 0.465666,-0.17992 0.285749,0 0.455082,0.17992 0.179916,0.16933 0.179916,0.45508 0,0.29633 -0.179916,0.47625 -0.169333,0.17992 -0.455082,0.17992 z"
         id="path384"
         style="fill:#808080;fill-opacity:1" />
      <path
         d="m 100.01196,123.20911 2.76224,-6.85798 h -2.984488 v 1.24883 h -0.952497 v -2.11666 h 4.921235 v 0.88899 l -2.69874,6.83682 z"
         id="path386"
         style="fill:#808080;fill-opacity:1" />
    </g>
  </g>
</svg>
